<?xml version="1.0" encoding="utf-8"?>
<!-- Generator: Adobe Illustrator 26.0.3, SVG Export Plug-In . SVG Version: 6.00 Build 0)  -->
<svg version="1.1" xmlns="http://www.w3.org/2000/svg" xmlns:xlink="http://www.w3.org/1999/xlink" x="0px" y="0px"
	 viewBox="0 0 1000 1000" style="enable-background:new 0 0 1000 1000;" xml:space="preserve">
<style type="text/css">
	.st0{font-family:'DINCondensed-Bold';}
	.st1{font-size:60px;}
	.st2{fill:#FFFFFF;stroke:#A7A9AC;stroke-width:7;stroke-miterlimit:10;}
	.st3{fill:#FFFFFF;stroke:#808285;stroke-width:14;stroke-miterlimit:10;}
	.st4{display:none;}
	.st5{display:inline;fill:none;stroke:#A7A9AC;stroke-width:7;stroke-miterlimit:10;}
</style>
<g id="Layer_1">
	<text transform="matrix(-0.7071 -0.7071 0.7071 -0.7071 185.9099 830.0767)" class="st0 st1">0</text>
	<text transform="matrix(-0.309 -0.9511 0.9511 -0.309 73.9824 662.3871)" class="st0 st1">10</text>
	<text transform="matrix(0.1564 -0.9877 0.9877 0.1564 46.9403 451.5396)" class="st0 st1">20</text>
	<text transform="matrix(0.5878 -0.809 0.809 0.5878 118.5583 251.4038)" class="st0 st1">30</text>
	<text transform="matrix(0.891 -0.454 0.454 0.891 273.2358 105.5908)" class="st0 st1">40</text>
	<text transform="matrix(1 0 0 1 477.2466 45.8955)" class="st0 st1">50</text>
	<text transform="matrix(0.891 0.454 -0.454 0.891 686.123 85.3274)" class="st0 st1">60</text>
	<text transform="matrix(0.5878 0.809 -0.809 0.5878 854.3405 215.2919)" class="st0 st1">70</text>
	<text transform="matrix(0.1564 0.9877 -0.9877 0.1564 945.2133 407.4536)" class="st0 st1">80</text>
	<text transform="matrix(-0.309 0.9511 -0.9511 -0.309 938.9428 619.9308)" class="st0 st1">90</text>
	<text transform="matrix(-0.7071 0.7071 -0.7071 -0.7071 844.8011 798.5107)" class="st0 st1">100</text>
</g>
<g id="TicksMinor">
	<line class="st2" x1="197.6" y1="817.7" x2="227.8" y2="787.5"/>
	<line class="st2" x1="183.7" y1="803.1" x2="215.3" y2="774.4"/>
	<line class="st2" x1="170.5" y1="787.9" x2="203.4" y2="760.7"/>
	<line class="st2" x1="158" y1="772.1" x2="192.2" y2="746.5"/>
	<line class="st2" x1="146.3" y1="755.7" x2="181.7" y2="731.7"/>
	<line class="st2" x1="135.4" y1="738.8" x2="171.8" y2="716.5"/>
	<line class="st2" x1="125.3" y1="721.4" x2="162.7" y2="700.8"/>
	<line class="st2" x1="116" y1="703.6" x2="154.4" y2="684.8"/>
	<line class="st2" x1="107.6" y1="685.3" x2="146.8" y2="668.3"/>
	<line class="st2" x1="100.1" y1="666.6" x2="140" y2="651.5"/>
	<line class="st2" x1="93.4" y1="647.6" x2="134" y2="634.5"/>
	<line class="st2" x1="87.6" y1="628.4" x2="128.8" y2="617.1"/>
	<line class="st2" x1="82.8" y1="608.8" x2="124.5" y2="599.5"/>
	<line class="st2" x1="78.9" y1="589.1" x2="120.9" y2="581.8"/>
	<line class="st2" x1="75.9" y1="569.2" x2="118.2" y2="563.8"/>
	<line class="st2" x1="73.8" y1="549.2" x2="116.4" y2="545.8"/>
	<line class="st2" x1="72.7" y1="529.1" x2="115.4" y2="527.7"/>
	<line class="st2" x1="72.5" y1="509" x2="115.3" y2="509.6"/>
	<line class="st2" x1="73.3" y1="488.9" x2="116" y2="491.5"/>
	<line class="st2" x1="75.1" y1="468.8" x2="117.5" y2="473.5"/>
	<line class="st2" x1="77.8" y1="448.9" x2="119.9" y2="455.5"/>
	<line class="st2" x1="81.4" y1="429.1" x2="123.2" y2="437.7"/>
	<line class="st2" x1="85.9" y1="409.5" x2="127.3" y2="420.1"/>
	<line class="st2" x1="91.4" y1="390.1" x2="132.2" y2="402.7"/>
	<line class="st2" x1="97.7" y1="371" x2="137.9" y2="385.5"/>
	<line class="st2" x1="105" y1="352.2" x2="144.5" y2="368.6"/>
	<line class="st2" x1="113.1" y1="333.8" x2="151.8" y2="352"/>
	<line class="st2" x1="122.1" y1="315.8" x2="159.9" y2="335.8"/>
	<line class="st2" x1="132" y1="298.3" x2="168.7" y2="320"/>
	<line class="st2" x1="142.6" y1="281.2" x2="178.3" y2="304.7"/>
	<line class="st2" x1="154.1" y1="264.6" x2="188.6" y2="289.8"/>
	<line class="st2" x1="166.3" y1="248.7" x2="199.6" y2="275.4"/>
	<line class="st2" x1="179.2" y1="233.2" x2="211.3" y2="261.5"/>
	<line class="st2" x1="192.9" y1="218.5" x2="223.5" y2="248.2"/>
	<line class="st2" x1="207.2" y1="204.4" x2="236.5" y2="235.5"/>
	<line class="st2" x1="222.2" y1="190.9" x2="249.9" y2="223.4"/>
	<line class="st2" x1="237.8" y1="178.2" x2="264" y2="212"/>
	<line class="st2" x1="254" y1="166.3" x2="278.6" y2="201.2"/>
	<line class="st2" x1="270.7" y1="155.1" x2="293.6" y2="191.1"/>
	<line class="st2" x1="288" y1="144.7" x2="309.1" y2="181.8"/>
	<line class="st2" x1="305.7" y1="135.2" x2="325.1" y2="173.2"/>
	<line class="st2" x1="323.8" y1="126.4" x2="341.4" y2="165.4"/>
	<line class="st2" x1="342.4" y1="118.6" x2="358.1" y2="158.3"/>
	<line class="st2" x1="361.2" y1="111.6" x2="375.1" y2="152"/>
	<line class="st2" x1="380.4" y1="105.6" x2="392.3" y2="146.6"/>
	<line class="st2" x1="399.9" y1="100.4" x2="409.8" y2="141.9"/>
	<line class="st2" x1="419.5" y1="96.2" x2="427.5" y2="138.1"/>
	<line class="st2" x1="439.4" y1="92.9" x2="445.4" y2="135.1"/>
	<line class="st2" x1="459.4" y1="90.5" x2="463.4" y2="133"/>
	<line class="st2" x1="479.5" y1="89.1" x2="481.5" y2="131.7"/>
	<line class="st2" x1="499.6" y1="88.6" x2="499.6" y2="131.3"/>
	<line class="st2" x1="519.7" y1="89.1" x2="517.7" y2="131.7"/>
	<line class="st2" x1="539.8" y1="90.5" x2="535.7" y2="133"/>
	<line class="st2" x1="559.7" y1="92.9" x2="553.7" y2="135.1"/>
	<line class="st2" x1="579.6" y1="96.2" x2="571.6" y2="138.1"/>
	<line class="st2" x1="599.3" y1="100.4" x2="589.3" y2="141.9"/>
	<line class="st2" x1="618.7" y1="105.6" x2="606.8" y2="146.6"/>
	<line class="st2" x1="637.9" y1="111.6" x2="624.1" y2="152"/>
	<line class="st2" x1="656.8" y1="118.6" x2="641.1" y2="158.3"/>
	<line class="st2" x1="675.3" y1="126.4" x2="657.7" y2="165.4"/>
	<line class="st2" x1="693.5" y1="135.2" x2="674.1" y2="173.2"/>
	<line class="st2" x1="711.2" y1="144.7" x2="690" y2="181.8"/>
	<line class="st2" x1="728.4" y1="155.1" x2="705.5" y2="191.1"/>
	<line class="st2" x1="745.1" y1="166.3" x2="720.6" y2="201.2"/>
	<line class="st2" x1="761.3" y1="178.2" x2="735.1" y2="212"/>
	<line class="st2" x1="776.9" y1="190.9" x2="749.2" y2="223.4"/>
	<line class="st2" x1="791.9" y1="204.4" x2="762.7" y2="235.5"/>
	<line class="st2" x1="806.3" y1="218.5" x2="775.6" y2="248.2"/>
	<line class="st2" x1="819.9" y1="233.2" x2="787.9" y2="261.5"/>
	<line class="st2" x1="832.9" y1="248.7" x2="799.5" y2="275.4"/>
	<line class="st2" x1="845.1" y1="264.6" x2="810.5" y2="289.8"/>
	<line class="st2" x1="856.5" y1="281.2" x2="820.8" y2="304.7"/>
	<line class="st2" x1="867.2" y1="298.3" x2="830.4" y2="320"/>
	<line class="st2" x1="877" y1="315.8" x2="839.3" y2="335.8"/>
	<line class="st2" x1="886" y1="333.8" x2="847.4" y2="352"/>
	<line class="st2" x1="894.1" y1="352.2" x2="854.7" y2="368.6"/>
	<line class="st2" x1="901.4" y1="371" x2="861.2" y2="385.5"/>
	<line class="st2" x1="907.8" y1="390.1" x2="866.9" y2="402.7"/>
	<line class="st2" x1="913.2" y1="409.5" x2="871.9" y2="420.1"/>
	<line class="st2" x1="917.8" y1="429.1" x2="875.9" y2="437.7"/>
	<line class="st2" x1="921.4" y1="448.9" x2="879.2" y2="455.5"/>
	<line class="st2" x1="924.1" y1="468.8" x2="881.6" y2="473.5"/>
	<line class="st2" x1="925.8" y1="488.9" x2="883.2" y2="491.5"/>
	<line class="st2" x1="926.6" y1="509" x2="883.9" y2="509.6"/>
	<line class="st2" x1="926.4" y1="529.1" x2="883.7" y2="527.7"/>
	<line class="st2" x1="925.3" y1="549.2" x2="882.7" y2="545.8"/>
	<line class="st2" x1="923.3" y1="569.2" x2="880.9" y2="563.8"/>
	<line class="st2" x1="920.3" y1="589.1" x2="878.2" y2="581.8"/>
	<line class="st2" x1="916.4" y1="608.8" x2="874.7" y2="599.5"/>
	<line class="st2" x1="911.5" y1="628.4" x2="870.3" y2="617.1"/>
	<line class="st2" x1="905.7" y1="647.6" x2="865.1" y2="634.5"/>
	<line class="st2" x1="899.1" y1="666.6" x2="859.1" y2="651.5"/>
	<line class="st2" x1="891.5" y1="685.3" x2="852.3" y2="668.3"/>
	<line class="st2" x1="883.1" y1="703.6" x2="844.7" y2="684.8"/>
	<line class="st2" x1="873.8" y1="721.4" x2="836.4" y2="700.8"/>
	<line class="st2" x1="863.7" y1="738.8" x2="827.3" y2="716.5"/>
	<line class="st2" x1="852.8" y1="755.7" x2="817.5" y2="731.7"/>
	<line class="st2" x1="841.1" y1="772.1" x2="806.9" y2="746.5"/>
	<line class="st2" x1="828.6" y1="787.9" x2="795.7" y2="760.7"/>
	<line class="st2" x1="815.4" y1="803.1" x2="783.9" y2="774.4"/>
	<line class="st2" x1="801.6" y1="817.7" x2="771.4" y2="787.5"/>
</g>
<g id="TicksMajor">
	<line class="st3" x1="197.6" y1="817.7" x2="288.2" y2="727.1"/>
	<line class="st3" x1="93.4" y1="647.6" x2="215.2" y2="608.1"/>
	<line class="st3" x1="77.8" y1="448.9" x2="204.3" y2="468.9"/>
	<line class="st3" x1="154.1" y1="264.6" x2="257.7" y2="340"/>
	<line class="st3" x1="305.7" y1="135.2" x2="363.8" y2="249.3"/>
	<line class="st3" x1="499.6" y1="88.6" x2="499.6" y2="216.7"/>
	<line class="st3" x1="693.5" y1="135.2" x2="635.3" y2="249.3"/>
	<line class="st3" x1="845.1" y1="264.6" x2="741.4" y2="340"/>
	<line class="st3" x1="921.4" y1="448.9" x2="794.8" y2="468.9"/>
	<line class="st3" x1="905.7" y1="647.6" x2="783.9" y2="608.1"/>
	<line class="st3" x1="801.6" y1="817.7" x2="711" y2="727.1"/>
</g>
<g id="Grid" class="st4">
	<line class="st5" x1="-241" y1="500" x2="1175" y2="500"/>
	<line class="st5" x1="500" y1="-102" x2="500" y2="1180"/>
	<line class="st5" x1="0" y1="1015" x2="559.7" y2="460.5"/>
	<line class="st5" x1="801.6" y1="817.7" x2="420.6" y2="436.7"/>
</g>
</svg>
