<?xml version="1.0" encoding="utf-8"?>
<!-- Generator: Adobe Illustrator 26.0.3, SVG Export Plug-In . SVG Version: 6.00 Build 0)  -->
<svg version="1.1" id="Layer_1" xmlns="http://www.w3.org/2000/svg" xmlns:xlink="http://www.w3.org/1999/xlink" x="0px" y="0px"
	 viewBox="0 0 240 240" style="enable-background:new 0 0 240 240;" xml:space="preserve">
<style type="text/css">
	.st0{fill:#231F20;}
	.st1{font-family:'MyriadPro-Regular';}
	.st2{font-size:26.4381px;}
	.st3{fill:#FFFFFF;stroke:#231F20;stroke-width:1.224;stroke-miterlimit:10;}
	.st4{fill:#FFFFFF;stroke:#231F20;stroke-width:2.448;stroke-miterlimit:10;}
</style>
<text transform="matrix(-0.5 -0.866 0.866 -0.5 39.2863 173.4896)" class="st0 st1 st2">0</text>
<text transform="matrix(-0.1045 -0.9945 0.9945 -0.1045 24.8425 142.7229)" class="st0 st1 st2">10</text>
<text transform="matrix(0.309 -0.9511 0.9511 0.309 23.451 101.9955)" class="st0 st1 st2">20</text>
<text transform="matrix(0.6691 -0.7431 0.7431 0.6691 38.7466 64.2229)" class="st0 st1 st2">30</text>
<text transform="matrix(0.9135 -0.4067 0.4067 0.9135 68.0829 35.9395)" class="st0 st1 st2">40</text>
<text transform="matrix(1 0 0 1 106.3857 22.0317)" class="st0 st1 st2">50</text>
<text transform="matrix(0.9135 0.4067 -0.4067 0.9135 147.0363 24.907)" class="st0 st1 st2">60</text>
<text transform="matrix(0.6691 0.7431 -0.7431 0.6691 183.0023 44.069)" class="st0 st1 st2">70</text>
<text transform="matrix(0.309 0.9511 -0.9511 0.309 208.0632 76.1989)" class="st0 st1 st2">80</text>
<text transform="matrix(-0.1045 0.9945 -0.9945 -0.1045 217.8901 115.7447)" class="st0 st1 st2">90</text>
<text transform="matrix(-0.5 0.866 -0.866 -0.5 214.1741 149.9996)" class="st0 st1 st2">100</text>
<line class="st3" x1="37.3" y1="167.7" x2="39.4" y2="166.5"/>
<line class="st3" x1="35.3" y1="164.2" x2="37.5" y2="163"/>
<line class="st3" x1="33.6" y1="160.6" x2="35.8" y2="159.6"/>
<line class="st3" x1="31.9" y1="156.9" x2="34.2" y2="156"/>
<line class="st3" x1="30.5" y1="153.2" x2="32.8" y2="152.4"/>
<line class="st3" x1="29.2" y1="149.5" x2="31.5" y2="148.7"/>
<line class="st3" x1="28" y1="145.6" x2="30.4" y2="145"/>
<line class="st3" x1="27" y1="141.8" x2="29.4" y2="141.2"/>
<line class="st3" x1="26.2" y1="137.8" x2="28.6" y2="137.4"/>
<line class="st3" x1="25.5" y1="133.9" x2="27.9" y2="133.5"/>
<line class="st3" x1="25" y1="129.9" x2="27.4" y2="129.7"/>
<line class="st3" x1="24.7" y1="125.9" x2="27.1" y2="125.8"/>
<line class="st3" x1="24.5" y1="122" x2="26.9" y2="121.9"/>
<line class="st3" x1="24.5" y1="118" x2="26.9" y2="118"/>
<line class="st3" x1="24.7" y1="114" x2="27.1" y2="114.1"/>
<line class="st3" x1="25" y1="110" x2="27.4" y2="110.2"/>
<line class="st3" x1="25.5" y1="106" x2="27.9" y2="106.4"/>
<line class="st3" x1="26.2" y1="102.1" x2="28.6" y2="102.5"/>
<line class="st3" x1="27" y1="98.2" x2="29.4" y2="98.7"/>
<line class="st3" x1="28" y1="94.3" x2="30.4" y2="94.9"/>
<line class="st3" x1="29.2" y1="90.4" x2="31.5" y2="91.2"/>
<line class="st3" x1="30.5" y1="86.7" x2="32.8" y2="87.5"/>
<line class="st3" x1="31.9" y1="83" x2="34.2" y2="83.9"/>
<line class="st3" x1="33.6" y1="79.3" x2="35.8" y2="80.3"/>
<line class="st3" x1="35.3" y1="75.7" x2="37.5" y2="76.9"/>
<line class="st3" x1="37.3" y1="72.2" x2="39.4" y2="73.4"/>
<line class="st3" x1="39.3" y1="68.8" x2="41.4" y2="70.1"/>
<line class="st3" x1="41.6" y1="65.5" x2="43.6" y2="66.9"/>
<line class="st3" x1="43.9" y1="62.2" x2="45.9" y2="63.7"/>
<line class="st3" x1="46.4" y1="59.1" x2="48.3" y2="60.7"/>
<line class="st3" x1="49" y1="56.1" x2="50.8" y2="57.7"/>
<line class="st3" x1="51.7" y1="53.2" x2="53.5" y2="54.9"/>
<line class="st3" x1="54.6" y1="50.4" x2="56.3" y2="52.1"/>
<line class="st3" x1="57.6" y1="47.7" x2="59.2" y2="49.5"/>
<line class="st3" x1="60.6" y1="45.1" x2="62.2" y2="47"/>
<line class="st3" x1="63.8" y1="42.7" x2="65.3" y2="44.7"/>
<line class="st3" x1="67.1" y1="40.4" x2="68.5" y2="42.5"/>
<line class="st3" x1="70.5" y1="38.3" x2="71.8" y2="40.4"/>
<line class="st3" x1="74" y1="36.3" x2="75.1" y2="38.4"/>
<line class="st3" x1="77.5" y1="34.4" x2="78.6" y2="36.6"/>
<line class="st3" x1="81.1" y1="32.7" x2="82.1" y2="35"/>
<line class="st3" x1="84.8" y1="31.2" x2="85.7" y2="33.5"/>
<line class="st3" x1="88.6" y1="29.8" x2="89.4" y2="32.1"/>
<line class="st3" x1="92.4" y1="28.6" x2="93.1" y2="30.9"/>
<line class="st3" x1="96.2" y1="27.5" x2="96.8" y2="29.9"/>
<line class="st3" x1="100.1" y1="26.6" x2="100.6" y2="29"/>
<line class="st3" x1="104" y1="25.8" x2="104.4" y2="28.2"/>
<line class="st3" x1="108" y1="25.2" x2="108.3" y2="27.7"/>
<line class="st3" x1="112" y1="24.8" x2="112.2" y2="27.3"/>
<line class="st3" x1="116" y1="24.6" x2="116.1" y2="27"/>
<line class="st3" x1="119.9" y1="24.5" x2="119.9" y2="26.9"/>
<line class="st3" x1="123.9" y1="24.6" x2="123.8" y2="27"/>
<line class="st3" x1="127.9" y1="24.8" x2="127.7" y2="27.3"/>
<line class="st3" x1="131.9" y1="25.2" x2="131.6" y2="27.7"/>
<line class="st3" x1="135.9" y1="25.8" x2="135.5" y2="28.2"/>
<line class="st3" x1="139.8" y1="26.6" x2="139.3" y2="29"/>
<line class="st3" x1="143.7" y1="27.5" x2="143.1" y2="29.9"/>
<line class="st3" x1="147.5" y1="28.6" x2="146.8" y2="30.9"/>
<line class="st3" x1="151.3" y1="29.8" x2="150.5" y2="32.1"/>
<line class="st3" x1="155.1" y1="31.2" x2="154.2" y2="33.5"/>
<line class="st3" x1="158.8" y1="32.7" x2="157.8" y2="35"/>
<line class="st3" x1="162.4" y1="34.4" x2="161.3" y2="36.6"/>
<line class="st3" x1="165.9" y1="36.3" x2="164.8" y2="38.4"/>
<line class="st3" x1="169.4" y1="38.3" x2="168.1" y2="40.4"/>
<line class="st3" x1="172.8" y1="40.4" x2="171.4" y2="42.5"/>
<line class="st3" x1="176.1" y1="42.7" x2="174.6" y2="44.7"/>
<line class="st3" x1="179.3" y1="45.1" x2="177.7" y2="47"/>
<line class="st3" x1="182.3" y1="47.7" x2="180.7" y2="49.5"/>
<line class="st3" x1="185.3" y1="50.4" x2="183.6" y2="52.1"/>
<line class="st3" x1="188.2" y1="53.2" x2="186.4" y2="54.9"/>
<line class="st3" x1="190.9" y1="56.1" x2="189.1" y2="57.7"/>
<line class="st3" x1="193.5" y1="59.1" x2="191.6" y2="60.7"/>
<line class="st3" x1="196" y1="62.2" x2="194" y2="63.7"/>
<line class="st3" x1="198.3" y1="65.5" x2="196.3" y2="66.9"/>
<line class="st3" x1="200.6" y1="68.8" x2="198.5" y2="70.1"/>
<line class="st3" x1="202.6" y1="72.2" x2="200.5" y2="73.4"/>
<line class="st3" x1="204.6" y1="75.7" x2="202.4" y2="76.9"/>
<line class="st3" x1="206.3" y1="79.3" x2="204.1" y2="80.3"/>
<line class="st3" x1="208" y1="83" x2="205.7" y2="83.9"/>
<line class="st3" x1="209.4" y1="86.7" x2="207.1" y2="87.5"/>
<line class="st3" x1="210.7" y1="90.4" x2="208.4" y2="91.2"/>
<line class="st3" x1="211.9" y1="94.3" x2="209.5" y2="94.9"/>
<line class="st3" x1="212.9" y1="98.2" x2="210.5" y2="98.7"/>
<line class="st3" x1="213.7" y1="102.1" x2="211.3" y2="102.5"/>
<line class="st3" x1="214.4" y1="106" x2="212" y2="106.4"/>
<line class="st3" x1="214.9" y1="110" x2="212.5" y2="110.2"/>
<line class="st3" x1="215.2" y1="114" x2="212.8" y2="114.1"/>
<line class="st3" x1="215.4" y1="118" x2="213" y2="118"/>
<line class="st3" x1="215.4" y1="122" x2="213" y2="121.9"/>
<line class="st3" x1="215.2" y1="125.9" x2="212.8" y2="125.8"/>
<line class="st3" x1="214.9" y1="129.9" x2="212.5" y2="129.7"/>
<line class="st3" x1="214.4" y1="133.9" x2="212" y2="133.5"/>
<line class="st3" x1="213.7" y1="137.8" x2="211.3" y2="137.4"/>
<line class="st3" x1="212.9" y1="141.8" x2="210.5" y2="141.2"/>
<line class="st3" x1="211.9" y1="145.6" x2="209.5" y2="145"/>
<line class="st3" x1="210.7" y1="149.5" x2="208.4" y2="148.7"/>
<line class="st3" x1="209.4" y1="153.2" x2="207.1" y2="152.4"/>
<line class="st3" x1="208" y1="156.9" x2="205.7" y2="156"/>
<line class="st3" x1="206.3" y1="160.6" x2="204.1" y2="159.6"/>
<line class="st3" x1="204.6" y1="164.2" x2="202.4" y2="163"/>
<line class="st3" x1="202.6" y1="167.7" x2="200.5" y2="166.5"/>
<line class="st4" x1="37.3" y1="167.7" x2="41.5" y2="165.2"/>
<line class="st4" x1="25" y1="129.9" x2="29.9" y2="129.4"/>
<line class="st4" x1="29.2" y1="90.4" x2="33.8" y2="92"/>
<line class="st4" x1="49" y1="56.1" x2="52.6" y2="59.3"/>
<line class="st4" x1="81.1" y1="32.7" x2="83.1" y2="37.2"/>
<line class="st4" x1="119.9" y1="24.5" x2="119.9" y2="29.4"/>
<line class="st4" x1="158.8" y1="32.7" x2="156.8" y2="37.2"/>
<line class="st4" x1="190.9" y1="56.1" x2="187.3" y2="59.3"/>
<line class="st4" x1="210.7" y1="90.4" x2="206.1" y2="92"/>
<line class="st4" x1="214.9" y1="129.9" x2="210" y2="129.4"/>
<line class="st4" x1="202.6" y1="167.7" x2="198.4" y2="165.2"/>
</svg>
