<svg id="Layer_1" data-name="Layer 1" xmlns="http://www.w3.org/2000/svg" width="240" height="240" viewBox="0 0 240 240">
  <defs>
    <style>
      .cls-1 {
        fill: #231f20;
      }

      .cls-2, .cls-3 {
        fill: #fff;
        stroke: #231f20;
        stroke-miterlimit: 10;
      }

      .cls-2 {
        stroke-width: 1.22px;
      }

      .cls-3 {
        stroke-width: 2.45px;
      }
    </style>
  </defs>
  <path class="cls-1" d="M25.38,167c5.06-2.93,8.94-2.66,10.84.64,1.68,2.9.09,6.45-4.81,9.34s-9,2.31-10.72-.71S20.64,169.69,25.38,167Zm4.89,7.95c3.87-2.24,5.38-4.7,4.33-6.53-1.19-2.06-4.17-1.66-8,.54s-5.52,4.44-4.32,6.52C23.33,177.21,26.22,177.25,30.27,174.91Z"/>
  <g>
    <path class="cls-1" d="M9.25,138.09v0l1.91,2.8-1.71.63-2.39-3.52-.21-2,17.1-1.8.23,2.24Z"/>
    <path class="cls-1" d="M13.38,117.61c5.81-.61,9.24,1.21,9.64,5,.35,3.34-2.54,5.93-8.19,6.58s-9.15-1.54-9.51-5S7.93,118.18,13.38,117.61Zm1.23,9.25c4.45-.46,6.83-2.1,6.61-4.2-.25-2.37-3.13-3.21-7.5-2.75-4.2.44-6.85,1.81-6.6,4.21C7.33,126.14,10,127.35,14.61,126.86Z"/>
  </g>
  <g>
    <path class="cls-1" d="M23.82,100.86l-1.36-.44-1.12-2.28c-2.62-5.47-4.12-8-6.57-8.86a3.06,3.06,0,0,0-4.25,2.2,5.89,5.89,0,0,0,.25,3.92L9,95.6a7.55,7.55,0,0,1-.16-5.17c1.14-3.52,4-4.22,6.38-3.46,3,1,4.75,4,7,8.49l.78,1.7h0l2.38-7.34,1.84.6Z"/>
    <path class="cls-1" d="M23.19,74.39c5.56,1.8,8,4.86,6.78,8.48-1,3.2-4.73,4.39-10.16,2.68s-7.73-5.12-6.65-8.44S18,72.7,23.19,74.39Zm-2.63,9c4.25,1.38,7.09.85,7.74-1.16.74-2.26-1.55-4.2-5.73-5.56-4-1.3-7-1.13-7.74,1.16C14.2,79.72,16.11,81.9,20.56,83.35Z"/>
  </g>
  <g>
    <path class="cls-1" d="M37.93,61.14A7.78,7.78,0,0,0,41.28,59c2-2.22,1.21-4.18.13-5.11-1.81-1.59-4-.67-5.53,1l-.87,1-1.29-1.17.86-1c1.14-1.26,1.92-3.43.41-4.8-1-.92-2.51-1.08-3.94.51a6.21,6.21,0,0,0-1.46,3.32l-1.67-.68a8.24,8.24,0,0,1,2-4.23c2.27-2.52,4.78-2.31,6.34-.91A4.26,4.26,0,0,1,37.17,52l0,0a4.48,4.48,0,0,1,5.85.1c2,1.84,2.4,5.05-.36,8.11a8.66,8.66,0,0,1-3.86,2.54Z"/>
    <path class="cls-1" d="M49.74,38.9c4.34,3.91,5.29,7.68,2.74,10.51-2.25,2.49-6.11,2.08-10.37-1.69s-5-7.83-2.64-10.42S45.67,35.23,49.74,38.9ZM43.69,46c3.32,3,6.13,3.67,7.54,2.09,1.59-1.76.29-4.47-3-7.4s-5.93-3.89-7.54-2.1C39.35,40.11,40.21,42.88,43.69,46Z"/>
  </g>
  <g>
    <path class="cls-1" d="M75.74,32.53l-1.9-4.28-7.3,3.25-.62-1.4L68.46,17l2.29-1,4.35,9.76,2.2-1L78,26.38l-2.2,1,1.91,4.28Zm-2.65-5.94-2.33-5.25c-.36-.82-.71-1.65-1-2.49l-.08,0c-.07,1.13-.16,2-.27,2.9l-1.46,7,0,.05Z"/>
    <path class="cls-1" d="M88.43,17.27c2.37,5.34,1.7,9.17-1.78,10.72-3.06,1.37-6.42-.58-8.78-5.76s-1.37-9.17,1.82-10.59S86.2,12.27,88.43,17.27Zm-8.43,4c1.82,4.08,4.11,5.84,6,5,2.18-1,2.09-4,.3-8-1.72-3.86-3.84-5.95-6-5C78.44,14.16,78.1,17,80,21.31Z"/>
  </g>
  <g>
    <path class="cls-1" d="M117.84,6.8h-6.56l-.66,4.42a8.15,8.15,0,0,1,1.4-.11,7.22,7.22,0,0,1,3.7.93,4.88,4.88,0,0,1,2.46,4.41c0,3.36-2.67,5.87-6.4,5.87a8.38,8.38,0,0,1-4.28-1.06l.58-1.77a7.57,7.57,0,0,0,3.67,1,3.8,3.8,0,0,0,4.08-3.73c0-2.22-1.51-3.81-5-3.81a17.84,17.84,0,0,0-2.38.18l1.11-8.25h8.23Z"/>
    <path class="cls-1" d="M132.56,13.25c0,5.85-2.17,9.07-6,9.07-3.36,0-5.64-3.14-5.69-8.83s2.49-8.94,6-8.94S132.56,7.78,132.56,13.25Zm-9.33.27c0,4.47,1.37,7,3.49,7,2.38,0,3.51-2.77,3.51-7.16,0-4.23-1.08-7-3.49-7C124.71,6.35,123.23,8.84,123.23,13.52Z"/>
  </g>
  <g>
    <path class="cls-1" d="M163.41,15.18a8.59,8.59,0,0,0-1.64-.62,7,7,0,0,0-7.94,3.15l.07,0a5.13,5.13,0,0,1,4.6-.13c2.78,1.24,3.84,4.12,2.48,7.18-1.28,2.88-4.42,4.66-7.68,3.21s-4.4-5.08-2.58-9.16a10.79,10.79,0,0,1,5.81-5.9,9.34,9.34,0,0,1,6.05-.08,10.39,10.39,0,0,1,1.6.57ZM158.77,24c1-2.25.32-4.17-1.63-5a3.86,3.86,0,0,0-3.91.57,2.08,2.08,0,0,0-.66.84c-1.1,2.6-.77,5,1.46,6C155.86,27.19,157.77,26.21,158.77,24Z"/>
    <path class="cls-1" d="M174.52,27.53c-2.38,5.34-5.67,7.41-9.15,5.86-3.07-1.37-3.86-5.17-1.6-10.38s5.91-7.16,9.09-5.74S176.75,22.53,174.52,27.53ZM165.89,24c-1.82,4.08-1.6,7,.33,7.82,2.18,1,4.35-1.11,6.13-5.12,1.72-3.86,1.86-6.84-.34-7.82C170.15,18,167.79,19.7,165.89,24Z"/>
  </g>
  <g>
    <path class="cls-1" d="M204,41.74l-1.14,1-16.64,4.91-1.61-1.78,16.29-4.64,0,0L195.35,35l1.43-1.29Z"/>
    <path class="cls-1" d="M207,57.65c-4.34,3.91-8.19,4.45-10.74,1.63-2.24-2.5-1.43-6.3,2.76-10.14S207.37,45,209.7,47.6,211.11,54,207,57.65Zm-6.44-6.76c-3.32,3-4.29,5.71-2.87,7.28,1.59,1.77,4.41.76,7.68-2.18s4.48-5.5,2.87-7.28C206.92,47.19,204.08,47.76,200.6,50.89Z"/>
  </g>
  <g>
    <path class="cls-1" d="M212.52,75.78c2.06-.67,3.92.09,5.43,1.82l.06,0a4.27,4.27,0,0,1,2.83-3.78c2.59-.84,5.06.77,6,3.64,1,3.17-.45,5.4-2.48,6.06a4.35,4.35,0,0,1-4.7-1.45l-.08,0c-.14,2.3-1.16,4-3.15,4.67-2.84.92-5.55-.9-6.56-4C208.76,79.28,210.13,76.56,212.52,75.78Zm3,8.77c2-.65,2.49-2.34,2.4-4.76-1.18-1.73-2.77-2.35-4.33-1.84a3.17,3.17,0,0,0-2.05,4.28C212.14,84.22,213.79,85.1,215.48,84.55Zm6.19-8.74c-1.63.53-2.11,2-2,4.1a3.37,3.37,0,0,0,3.77,1.52,2.66,2.66,0,0,0,1.77-3.63A2.73,2.73,0,0,0,221.67,75.81Z"/>
    <path class="cls-1" d="M224.5,98.38c-5.56,1.81-9.29.74-10.47-2.88-1-3.19,1.25-6.33,6.64-8.14S229.94,87,231,90.29,229.71,96.69,224.5,98.38Zm-3.13-8.79c-4.25,1.38-6.24,3.47-5.59,5.48.74,2.26,3.73,2.49,7.9,1.13s6.33-3.2,5.59-5.48C228.64,88.78,225.82,88.14,221.37,89.59Z"/>
  </g>
  <g>
    <path class="cls-1" d="M219.26,118.44a9,9,0,0,0-.12,1.88,6.45,6.45,0,0,0,1.28,3.75,7.56,7.56,0,0,0,4.31,2.74v-.08a5,5,0,0,1-1.42-4.22,5,5,0,0,1,5.76-4.5,5.9,5.9,0,0,1,5.47,6.48c-.37,3.5-3.44,5.35-7.8,4.9-3.76-.4-6.26-1.94-7.72-3.79a8.61,8.61,0,0,1-1.76-5.21,11.51,11.51,0,0,1,.09-2.15Zm9.74,1.88c-2.13-.23-3.76.9-4,2.9a3.85,3.85,0,0,0,1.43,3.56,1.59,1.59,0,0,0,.82.3c2.92.3,5.27-.54,5.52-3C233,122.15,231.42,120.57,229,120.32Z"/>
    <path class="cls-1" d="M223.88,142.7c-5.81-.62-8.79-3.11-8.39-6.9.35-3.34,3.72-5.27,9.38-4.73s8.63,3.41,8.26,6.88S229.33,143.27,223.88,142.7Zm.72-9.32c-4.45-.46-7.12.64-7.34,2.74-.25,2.37,2.4,3.79,6.76,4.25,4.21.44,7.09-.35,7.34-2.74C231.57,135.61,229.25,133.87,224.6,133.38Z"/>
  </g>
  <g>
    <path class="cls-1" d="M224.06,162.91l0,0,.09-3.4,1.76.5-.13,4.26-1,1.72-14.89-8.6,1.12-1.95Z"/>
    <path class="cls-1" d="M208.69,177.06c-5.06-2.92-6.77-6.41-4.87-9.71,1.68-2.91,5.54-3.31,10.49-.51s6.5,6.62,4.76,9.64S213.43,179.79,208.69,177.06Zm4.44-8.22c-3.87-2.23-6.76-2.31-7.82-.48-1.19,2.06.65,4.44,4.45,6.63s6.61,2.56,7.81.48C218.59,173.71,217.18,171.18,213.13,168.84Z"/>
    <path class="cls-1" d="M201.91,188.8c-5.06-2.92-6.77-6.41-4.87-9.71,1.68-2.91,5.54-3.3,10.49-.5s6.5,6.62,4.76,9.64S206.65,191.54,201.91,188.8Zm4.44-8.21c-3.87-2.24-6.76-2.32-7.82-.48-1.19,2.06.65,4.43,4.45,6.63s6.61,2.56,7.81.48C211.81,185.45,210.4,182.93,206.35,180.59Z"/>
  </g>
  <line class="cls-2" x1="37.27" y1="167.69" x2="39.39" y2="166.46"/>
  <line class="cls-2" x1="35.34" y1="164.18" x2="37.51" y2="163.05"/>
  <line class="cls-2" x1="33.56" y1="160.6" x2="35.78" y2="159.56"/>
  <line class="cls-2" x1="31.94" y1="156.95" x2="34.19" y2="156"/>
  <line class="cls-2" x1="30.47" y1="153.23" x2="32.76" y2="152.38"/>
  <line class="cls-2" x1="29.15" y1="149.45" x2="31.48" y2="148.7"/>
  <line class="cls-2" x1="27.99" y1="145.63" x2="30.35" y2="144.97"/>
  <line class="cls-2" x1="27" y1="141.75" x2="29.38" y2="141.19"/>
  <line class="cls-2" x1="26.17" y1="137.84" x2="28.57" y2="137.38"/>
  <line class="cls-2" x1="25.5" y1="133.9" x2="27.92" y2="133.54"/>
  <line class="cls-2" x1="25" y1="129.93" x2="27.44" y2="129.67"/>
  <line class="cls-2" x1="24.67" y1="125.95" x2="27.11" y2="125.79"/>
  <line class="cls-2" x1="24.5" y1="121.95" x2="26.95" y2="121.9"/>
  <line class="cls-2" x1="24.5" y1="117.95" x2="26.95" y2="118"/>
  <line class="cls-2" x1="24.67" y1="113.96" x2="27.11" y2="114.11"/>
  <line class="cls-2" x1="25" y1="109.97" x2="27.44" y2="110.23"/>
  <line class="cls-2" x1="25.5" y1="106" x2="27.92" y2="106.36"/>
  <line class="cls-2" x1="26.17" y1="102.06" x2="28.57" y2="102.52"/>
  <line class="cls-2" x1="27" y1="98.15" x2="29.38" y2="98.71"/>
  <line class="cls-2" x1="27.99" y1="94.28" x2="30.35" y2="94.94"/>
  <line class="cls-2" x1="29.15" y1="90.45" x2="31.48" y2="91.21"/>
  <line class="cls-2" x1="30.47" y1="86.67" x2="32.76" y2="87.53"/>
  <line class="cls-2" x1="31.94" y1="82.95" x2="34.19" y2="83.9"/>
  <line class="cls-2" x1="33.56" y1="79.3" x2="35.78" y2="80.34"/>
  <line class="cls-2" x1="35.34" y1="75.72" x2="37.51" y2="76.85"/>
  <line class="cls-2" x1="37.27" y1="72.22" x2="39.39" y2="73.44"/>
  <line class="cls-2" x1="39.34" y1="68.8" x2="41.41" y2="70.11"/>
  <line class="cls-2" x1="41.55" y1="65.46" x2="43.56" y2="66.86"/>
  <line class="cls-2" x1="43.9" y1="62.23" x2="45.85" y2="63.71"/>
  <line class="cls-2" x1="46.39" y1="59.1" x2="48.27" y2="60.66"/>
  <line class="cls-2" x1="49" y1="56.07" x2="50.82" y2="57.71"/>
  <line class="cls-2" x1="51.74" y1="53.15" x2="53.49" y2="54.87"/>
  <line class="cls-2" x1="54.59" y1="50.36" x2="56.27" y2="52.14"/>
  <line class="cls-2" x1="57.57" y1="47.68" x2="59.17" y2="49.53"/>
  <line class="cls-2" x1="60.65" y1="45.13" x2="62.17" y2="47.05"/>
  <line class="cls-2" x1="63.83" y1="42.71" x2="65.27" y2="44.69"/>
  <line class="cls-2" x1="67.12" y1="40.43" x2="68.47" y2="42.47"/>
  <line class="cls-2" x1="70.49" y1="38.29" x2="71.76" y2="40.38"/>
  <line class="cls-2" x1="73.96" y1="36.29" x2="75.13" y2="38.43"/>
  <line class="cls-2" x1="77.5" y1="34.44" x2="78.59" y2="36.63"/>
  <line class="cls-2" x1="81.12" y1="32.73" x2="82.11" y2="34.97"/>
  <line class="cls-2" x1="84.8" y1="31.18" x2="85.7" y2="33.46"/>
  <line class="cls-2" x1="88.55" y1="29.79" x2="89.36" y2="32.1"/>
  <line class="cls-2" x1="92.35" y1="28.56" x2="93.06" y2="30.9"/>
  <line class="cls-2" x1="96.21" y1="27.48" x2="96.81" y2="29.85"/>
  <line class="cls-2" x1="100.1" y1="26.57" x2="100.61" y2="28.96"/>
  <line class="cls-2" x1="104.03" y1="25.82" x2="104.44" y2="28.23"/>
  <line class="cls-2" x1="107.98" y1="25.23" x2="108.29" y2="27.66"/>
  <line class="cls-2" x1="111.96" y1="24.82" x2="112.16" y2="27.25"/>
  <line class="cls-2" x1="115.95" y1="24.56" x2="116.05" y2="27.01"/>
  <line class="cls-2" x1="119.95" y1="24.48" x2="119.95" y2="26.93"/>
  <line class="cls-2" x1="123.95" y1="24.56" x2="123.84" y2="27.01"/>
  <line class="cls-2" x1="127.94" y1="24.82" x2="127.73" y2="27.25"/>
  <line class="cls-2" x1="131.91" y1="25.23" x2="131.61" y2="27.66"/>
  <line class="cls-2" x1="135.87" y1="25.82" x2="135.46" y2="28.23"/>
  <line class="cls-2" x1="139.8" y1="26.57" x2="139.29" y2="28.96"/>
  <line class="cls-2" x1="143.69" y1="27.48" x2="143.08" y2="29.85"/>
  <line class="cls-2" x1="147.54" y1="28.56" x2="146.84" y2="30.9"/>
  <line class="cls-2" x1="151.35" y1="29.79" x2="150.54" y2="32.1"/>
  <line class="cls-2" x1="155.09" y1="31.18" x2="154.19" y2="33.46"/>
  <line class="cls-2" x1="158.78" y1="32.73" x2="157.78" y2="34.97"/>
  <line class="cls-2" x1="162.4" y1="34.44" x2="161.31" y2="36.63"/>
  <line class="cls-2" x1="165.94" y1="36.29" x2="164.76" y2="38.43"/>
  <line class="cls-2" x1="169.41" y1="38.29" x2="168.14" y2="40.38"/>
  <line class="cls-2" x1="172.78" y1="40.43" x2="171.43" y2="42.47"/>
  <line class="cls-2" x1="176.06" y1="42.71" x2="174.63" y2="44.69"/>
  <line class="cls-2" x1="179.25" y1="45.13" x2="177.73" y2="47.05"/>
  <line class="cls-2" x1="182.33" y1="47.68" x2="180.73" y2="49.53"/>
  <line class="cls-2" x1="185.3" y1="50.36" x2="183.63" y2="52.14"/>
  <line class="cls-2" x1="188.16" y1="53.15" x2="186.41" y2="54.87"/>
  <line class="cls-2" x1="190.9" y1="56.07" x2="189.08" y2="57.71"/>
  <line class="cls-2" x1="193.51" y1="59.1" x2="191.62" y2="60.66"/>
  <line class="cls-2" x1="195.99" y1="62.23" x2="194.04" y2="63.71"/>
  <line class="cls-2" x1="198.34" y1="65.46" x2="196.33" y2="66.86"/>
  <line class="cls-2" x1="200.56" y1="68.8" x2="198.49" y2="70.11"/>
  <line class="cls-2" x1="202.63" y1="72.22" x2="200.51" y2="73.44"/>
  <line class="cls-2" x1="204.56" y1="75.72" x2="202.39" y2="76.85"/>
  <line class="cls-2" x1="206.33" y1="79.3" x2="204.12" y2="80.34"/>
  <line class="cls-2" x1="207.96" y1="82.95" x2="205.7" y2="83.9"/>
  <line class="cls-2" x1="209.43" y1="86.67" x2="207.14" y2="87.53"/>
  <line class="cls-2" x1="210.75" y1="90.45" x2="208.42" y2="91.21"/>
  <line class="cls-2" x1="211.9" y1="94.28" x2="209.54" y2="94.94"/>
  <line class="cls-2" x1="212.9" y1="98.15" x2="210.51" y2="98.71"/>
  <line class="cls-2" x1="213.73" y1="102.06" x2="211.32" y2="102.52"/>
  <line class="cls-2" x1="214.4" y1="106" x2="211.97" y2="106.36"/>
  <line class="cls-2" x1="214.9" y1="109.97" x2="212.46" y2="110.23"/>
  <line class="cls-2" x1="215.23" y1="113.96" x2="212.79" y2="114.11"/>
  <line class="cls-2" x1="215.4" y1="117.95" x2="212.95" y2="118"/>
  <line class="cls-2" x1="215.4" y1="121.95" x2="212.95" y2="121.9"/>
  <line class="cls-2" x1="215.23" y1="125.95" x2="212.79" y2="125.79"/>
  <line class="cls-2" x1="214.9" y1="129.93" x2="212.46" y2="129.67"/>
  <line class="cls-2" x1="214.4" y1="133.9" x2="211.97" y2="133.54"/>
  <line class="cls-2" x1="213.73" y1="137.84" x2="211.32" y2="137.38"/>
  <line class="cls-2" x1="212.9" y1="141.75" x2="210.51" y2="141.19"/>
  <line class="cls-2" x1="211.9" y1="145.63" x2="209.54" y2="144.97"/>
  <line class="cls-2" x1="210.75" y1="149.45" x2="208.42" y2="148.7"/>
  <line class="cls-2" x1="209.43" y1="153.23" x2="207.14" y2="152.38"/>
  <line class="cls-2" x1="207.96" y1="156.95" x2="205.7" y2="156"/>
  <line class="cls-2" x1="206.33" y1="160.6" x2="204.12" y2="159.56"/>
  <line class="cls-2" x1="204.56" y1="164.18" x2="202.39" y2="163.05"/>
  <line class="cls-2" x1="202.63" y1="167.69" x2="200.51" y2="166.46"/>
  <line class="cls-3" x1="37.27" y1="167.69" x2="41.51" y2="165.24"/>
  <line class="cls-3" x1="25" y1="129.93" x2="29.87" y2="129.42"/>
  <line class="cls-3" x1="29.15" y1="90.45" x2="33.81" y2="91.96"/>
  <line class="cls-3" x1="49" y1="56.07" x2="52.64" y2="59.34"/>
  <line class="cls-3" x1="81.12" y1="32.73" x2="83.11" y2="37.21"/>
  <line class="cls-3" x1="119.95" y1="24.48" x2="119.95" y2="29.38"/>
  <line class="cls-3" x1="158.78" y1="32.73" x2="156.79" y2="37.21"/>
  <line class="cls-3" x1="190.9" y1="56.07" x2="187.26" y2="59.34"/>
  <line class="cls-3" x1="210.75" y1="90.45" x2="206.09" y2="91.96"/>
  <line class="cls-3" x1="214.9" y1="129.93" x2="210.03" y2="129.42"/>
  <line class="cls-3" x1="202.63" y1="167.69" x2="198.39" y2="165.24"/>
</svg>
